# xmcd
# 
# Track frame offsets:
#     183
#     10608
#     22863
#     31315
#     50618
#     74583
#     92583
#     111360
#     125560
#     136833
#     146073
#     159475
#     166458
#     176658
#     186410
#     202533
#     224013
#     236733
#     248305
#     274468
#     287443
#     298668
# 
# Disc length: 4270
# 
# Revision: 1
# Processed by: cddbd v1.5.2PL0 Copyright (c) Steve Scherf et al.
# Submitted via: BonkEnc v1.0.8
# 
DISCID=4410ac16
DTITLE=Memphis Slim - The Story
DYEAR=1989
DGENRE=Blues
TTITLE0=All By Myself
TTITLE1=Sassy Mae
TTITLE2=Baby Please Come Home
TTITLE3=Gone Again
TTITLE4=Rock Me Baby
TTITLE5=Careless Love
TTITLE6=Gamblers Blues
TTITLE7=Broadway Boogie
TTITLE8=Ballin' The jack
TTITLE9=Pigalle Love
TTITLE10=Ramble This Highway
TTITLE11=Baby Please Come Home 2nd version
TTITLE12=Little Lonely Girl
TTITLE13=Caledonia
TTITLE14=This Little Woman
TTITLE15=Strollin' Thru' The Park
TTITLE16=I Am The Blues
TTITLE17=A Long Time Baby
TTITLE18=Freedom
TTITLE19=Only Fools Have Fun
TTITLE20=Let's Get With It
TTITLE21=Forty Years Or More
EXTD=
EXTT0=
EXTT1=
EXTT2=
EXTT3=
EXTT4=
EXTT5=
EXTT6=
EXTT7=
EXTT8=
EXTT9=
EXTT10=
EXTT11=
EXTT12=
EXTT13=
EXTT14=
EXTT15=
EXTT16=
EXTT17=
EXTT18=
EXTT19=
EXTT20=
EXTT21=
PLAYORDER=
